HIERARCHY
ROOT root
{
	OFFSET 0.000000 0.000000 0.000000
	CHANNELS 6 Xposition Yposition Zposition Zrotation Yrotation Xrotation
	JOINT lhip
	{
		OFFSET 0.058581 -0.082280 -0.017664
		CHANNELS 3 Zrotation Yrotation Xrotation
		JOINT lknee
		{
			OFFSET 0.043451 -0.386469 0.008037
			CHANNELS 3 Zrotation Yrotation Xrotation
			JOINT lankle
			{
				OFFSET -0.014790 -0.426874 -0.037428
				CHANNELS 3 Zrotation Yrotation Xrotation
				JOINT ltoe
				{
					OFFSET 0.041054 -0.060286 0.122042
					CHANNELS 3 Zrotation Yrotation Xrotation
					End Site
					{
						OFFSET 0.000000 0.000000 0.000000
					}
				}
			}
		}
	}
	JOINT rhip
	{
		OFFSET -0.060310 -0.090513 -0.013543
		CHANNELS 3 Zrotation Yrotation Xrotation
		JOINT rknee
		{
			OFFSET -0.043257 -0.383688 -0.004843
			CHANNELS 3 Zrotation Yrotation Xrotation
			JOINT rankle
			{
				OFFSET 0.019056 -0.420046 -0.034562
				CHANNELS 3 Zrotation Yrotation Xrotation
				JOINT rtoe
				{
					OFFSET -0.034840 -0.062106 0.130323
					CHANNELS 3 Zrotation Yrotation Xrotation
					End Site
					{
						OFFSET 0.000000 0.000000 0.000000
					}
				}
			}
		}
	}
	JOINT lowerback
	{
		OFFSET 0.004439 0.124404 -0.038385
		CHANNELS 3 Zrotation Yrotation Xrotation
		JOINT upperback
		{
			OFFSET 0.004488 0.137956 0.026820
			CHANNELS 3 Zrotation Yrotation Xrotation
			JOINT chest
			{
				OFFSET -0.002265 0.056032 0.002855
				CHANNELS 3 Zrotation Yrotation Xrotation
				JOINT lowerneck
				{
					OFFSET -0.013390 0.211636 -0.033468
					CHANNELS 3 Zrotation Yrotation Xrotation
					JOINT upperneck
					{
						OFFSET 0.010113 0.088937 0.050410
						CHANNELS 3 Zrotation Yrotation Xrotation
						End Site
						{
							OFFSET 0.000000 0.000000 0.000000
						}
					}
				}
				JOINT lclavicle
				{
					OFFSET 0.071702 0.114000 -0.018898
					CHANNELS 3 Zrotation Yrotation Xrotation
					JOINT lshoulder
					{
						OFFSET 0.122921 0.045205 -0.019046
						CHANNELS 3 Zrotation Yrotation Xrotation
						JOINT lelbow
						{
							OFFSET 0.255332 -0.015649 -0.022946
							CHANNELS 3 Zrotation Yrotation Xrotation
							JOINT lwrist
							{
								OFFSET 0.265709 0.012698 -0.007375
								CHANNELS 3 Zrotation Yrotation Xrotation
								End Site
								{
									OFFSET 0.000000 0.000000 0.000000
								}
							}
						}
					}
				}
				JOINT rclavicle
				{
					OFFSET -0.082954 0.112472 -0.023707
					CHANNELS 3 Zrotation Yrotation Xrotation
					JOINT rshoulder
					{
						OFFSET -0.113228 0.046853 -0.008472
						CHANNELS 3 Zrotation Yrotation Xrotation
						JOINT relbow
						{
							OFFSET -0.260127 -0.014369 -0.031269
							CHANNELS 3 Zrotation Yrotation Xrotation
							JOINT rwrist
							{
								OFFSET -0.269108 0.006794 -0.006027
								CHANNELS 3 Zrotation Yrotation Xrotation
								End Site
								{
									OFFSET 0.000000 0.000000 0.000000
								}
							}
						}
					}
				}
			}
		}
	}
}
MOTION
Frames: 13
Frame Time: 0.033333
0.339024 0.280121 1.002437 59.128993 0.006984 91.913642 -1.751144 4.430792 -4.869514 -3.310452 3.692063 8.513312 8.389231 9.153185 -11.102085 0.000000 -0.000000 0.000000 -2.196981 -6.924961 -14.306446 0.130846 -14.181186 30.859352 3.912418 -14.476245 -12.475785 0.000000 -0.000000 0.000000 -1.414862 -0.260729 7.078958 4.481920 -5.489711 -1.202406 -0.946405 -4.266575 4.873860 2.665915 -2.514611 -3.580306 -2.422844 -3.784325 8.787771 -22.562535 15.065185 1.451775 -54.993390 4.279078 -0.767212 11.374546 -44.642179 6.553908 -6.554875 -4.106867 -9.680451 23.832561 -16.352084 -10.449311 47.679509 1.679282 2.591204 -129.986722 43.488091 -110.698518 24.637588 18.269345 -30.631523 
0.335326 0.273015 1.003774 55.068999 -0.012213 92.046725 -1.477650 4.133192 -5.217789 -2.805395 6.597567 9.308138 8.110830 10.247787 -11.511999 0.000000 -0.000000 0.000000 -1.742322 -6.296183 -13.512772 0.590373 -13.729471 29.693497 4.659647 -13.283892 -12.060281 0.000000 -0.000000 0.000000 -1.170293 -0.298938 6.240757 4.326937 -6.358176 -0.521798 -1.303173 -4.169067 4.347451 3.013084 -1.775389 -3.376061 -2.452351 -4.307059 8.844068 -22.446262 14.677370 1.063046 -54.300464 4.888388 -1.525951 11.207789 -44.226481 5.445659 -7.015762 -4.271669 -7.738290 22.958750 -16.865551 -10.926011 46.813704 2.161081 4.605270 -145.086919 41.293497 -117.956046 24.355906 16.047697 -21.293559 
0.329981 0.265412 1.005037 51.292202 0.163531 92.123247 -0.680354 4.804911 -6.072469 -2.502285 8.538614 12.098849 6.909251 9.899072 -12.275485 0.000000 -0.000000 0.000000 -0.580711 -5.837398 -12.850450 0.119655 -13.846614 27.536270 4.373050 -11.429574 -13.118783 0.000000 -0.000000 0.000000 -0.986464 -0.216354 6.487057 4.303205 -6.481815 -1.213185 -1.252921 -4.734097 4.170158 3.509869 -1.001894 -2.539294 -2.707625 -4.798114 7.868976 -23.462003 15.609005 0.475528 -52.042690 3.919773 -0.856740 10.452360 -43.152715 4.777513 -10.031247 -4.847839 -6.898642 23.260402 -18.682131 -11.822475 44.577448 3.666199 9.262178 -157.632095 40.167219 -123.011017 19.405334 13.737077 -12.464029 
0.324892 0.257665 1.005115 47.009971 0.433378 91.999762 0.141469 4.940292 -6.406665 -1.955545 10.272003 13.628847 5.842616 11.679714 -12.394954 0.000000 -0.000000 0.000000 0.515253 -5.044716 -12.108043 0.862073 -12.302392 25.675710 3.003724 -11.443539 -13.940336 0.000000 -0.000000 0.000000 -0.818499 -0.304164 6.084992 4.295316 -6.672674 -0.901189 -1.110840 -5.040727 4.115271 3.723275 -0.709341 -2.237681 -2.697606 -4.485351 7.731755 -23.722074 15.270082 0.002044 -51.507131 4.325528 -0.934667 10.241895 -42.826292 3.778970 -8.012388 -4.441888 -6.456461 22.638648 -17.666501 -11.095996 43.371426 3.819785 13.021394 -167.664535 40.988259 -130.392879 16.995691 13.283527 -9.406093 
0.318604 0.251578 1.004831 42.773048 0.584753 91.871344 1.106507 4.177609 -7.433680 -2.031084 9.167783 17.761734 5.102809 12.896220 -12.316035 0.000000 -0.000000 0.000000 1.529454 -3.670866 -11.536800 0.863684 -10.239162 24.453434 2.260496 -10.931078 -14.230378 0.000000 -0.000000 0.000000 -0.973116 -0.612316 6.376465 4.275605 -6.550734 -1.003572 -0.663421 -5.172206 3.994694 3.584108 -0.425641 -1.918248 -2.448778 -4.109704 7.951862 -24.108618 14.592212 -0.030069 -51.219087 4.680153 -0.327915 10.356373 -42.929925 3.523857 -3.006685 -4.600665 -5.562968 22.082985 -14.908578 -9.187200 42.761863 2.748802 17.241181 -175.621584 44.934528 -137.075607 12.112040 12.675392 -7.792096 
0.312631 0.246697 1.004001 38.315628 0.653877 91.407785 2.342905 3.162139 -8.754964 -2.473273 8.482809 23.173927 4.057263 14.364588 -12.773187 0.000000 -0.000000 0.000000 2.253600 -2.144586 -10.729323 1.237709 -7.312027 23.680147 1.466672 -10.683346 -14.785798 0.000000 -0.000000 0.000000 -1.005453 -0.468740 6.540083 4.254028 -6.310387 -0.268517 -0.388903 -4.624871 3.774480 3.299790 -0.892946 -1.679225 -1.640178 -4.163968 7.623744 -24.168753 13.066043 0.617085 -51.343225 4.116975 0.357363 11.845440 -43.430677 1.201894 1.495833 -3.629509 -7.250551 22.274347 -12.217189 -7.155902 42.997764 1.344441 20.195398 176.947601 52.204873 -142.480285 9.057818 11.065496 -3.416038 
0.306474 0.243854 1.003414 33.959829 0.759392 90.786600 3.609715 2.434715 -10.971632 -2.646206 8.912494 29.746419 2.677998 15.815784 -12.427039 0.000000 -0.000000 0.000000 2.662127 -1.795742 -9.854387 1.943130 -4.526492 22.976785 0.617051 -9.610232 -15.190233 0.000000 -0.000000 0.000000 -0.792085 0.049712 7.912813 4.187999 -5.665989 -0.511369 -0.067334 -3.993430 3.740079 2.935790 -1.159372 -2.432788 -0.939563 -4.400586 8.123269 -24.601269 11.723374 0.918372 -50.908180 3.014410 1.521468 12.006855 -43.946014 0.340160 6.782460 -3.086297 -8.694583 23.907549 -10.008611 -5.809685 43.465530 0.260310 22.100327 168.605563 63.564410 -150.773824 5.117889 10.496709 2.116431 
0.300741 0.243773 1.002425 29.454761 0.364784 90.884150 4.308227 1.178093 -14.459279 -3.168831 9.793155 36.797731 2.471565 15.810229 -8.406476 0.000000 -0.000000 0.000000 2.695539 -0.740313 -10.393739 1.934396 -2.293303 23.265894 -0.669046 -8.573900 -14.818362 0.000000 -0.000000 0.000000 -0.950592 0.415377 8.509128 4.337754 -4.914198 -0.083239 0.168591 -3.345912 3.313144 2.350481 -0.925349 -3.208804 -0.663772 -5.121825 8.135358 -25.381404 10.673366 0.937846 -50.123590 1.975879 3.350047 12.784465 -45.039823 0.057974 8.432745 -3.008904 -9.391146 26.218820 -7.353209 -3.879315 44.108815 1.536323 22.895813 151.409905 77.941788 -168.742868 3.108818 10.644797 6.812284 
0.297103 0.244371 1.001646 25.052468 0.534273 90.406462 5.087091 1.333598 -17.289787 -2.998120 9.414597 43.377188 2.156424 15.819812 -5.033203 0.000000 -0.000000 0.000000 3.350059 0.359901 -10.390320 1.793059 -0.128331 23.572261 -1.599640 -7.714893 -14.448017 0.000000 -0.000000 0.000000 -0.767328 0.826513 9.735192 4.848040 -3.717242 0.540086 0.814326 -2.746136 2.957230 1.530716 -0.804771 -4.637572 -1.020564 -5.625841 8.981712 -25.830044 9.124204 1.240248 -50.572261 0.606094 5.097475 13.858722 -45.758481 0.408069 7.892773 -3.176662 -9.953966 28.964882 -3.657909 -2.136338 44.418996 4.129360 22.353910 24.124689 81.933590 61.777174 4.277847 9.875153 10.776805 
0.299561 0.244193 1.000926 22.002595 0.567443 89.680523 5.127137 -0.761182 -18.828091 -3.542928 7.614777 47.611687 3.120928 14.405808 -2.415532 0.000000 -0.000000 0.000000 3.156091 0.597151 -9.532892 2.078251 1.520763 23.422604 -2.306965 -6.464327 -14.002539 0.000000 -0.000000 0.000000 0.187066 0.794960 10.703955 5.320709 -3.870160 1.349110 1.128948 -2.063794 2.390428 0.518799 -0.687524 -4.480147 -1.785884 -5.183535 8.952839 -26.260520 8.410460 1.987712 -51.648558 -1.089357 6.705858 15.830682 -46.183519 0.517430 5.207419 -3.146465 -12.413555 30.465334 0.539827 -0.562124 45.410046 7.434075 21.254669 -4.292810 62.943129 29.807129 8.164500 9.083779 10.607423 
0.300686 0.246457 0.999625 16.201548 -0.180737 89.231131 4.610346 -1.775106 -19.603988 -6.396537 5.369776 49.719151 2.161480 11.827848 -4.343337 0.000000 -0.000000 0.000000 2.480633 2.286706 -10.506090 2.039615 3.962891 25.255766 -1.750661 -4.826269 -14.235587 0.000000 -0.000000 0.000000 -0.341328 1.191962 11.906971 5.590317 -2.252209 2.261179 1.708444 -0.838194 1.716026 0.310813 0.533072 -4.636310 -3.325947 -5.171729 9.056173 -26.087672 6.883911 2.463353 -52.462672 -1.551947 8.745252 17.118303 -46.939213 0.633681 4.037326 -3.541180 -13.035073 32.335741 4.308115 0.810112 45.754988 11.566383 19.179165 -9.395766 44.765378 18.079263 10.240060 6.235310 6.379496 
0.304940 0.246953 0.999384 12.405154 -0.332446 88.410923 4.059133 -3.162142 -19.833106 -9.190809 1.785059 50.790307 0.035373 8.589808 -6.503595 0.000000 -0.000000 0.000000 2.379100 3.079561 -10.066696 2.006116 5.687962 25.674300 -1.637103 -3.665101 -14.341037 0.000000 -0.000000 0.000000 0.218169 1.560401 13.615327 6.061293 -1.648056 2.467744 2.201010 -0.261899 1.103522 -0.048545 1.297611 -4.433968 -4.587204 -5.371306 9.253605 -26.090213 5.122581 2.871325 -53.010943 -1.127283 10.631374 17.634601 -48.128997 1.463031 2.772849 -3.959020 -13.839248 32.506606 7.425206 2.117758 46.696535 13.758252 15.870864 -13.533425 29.671685 4.689882 8.381322 5.424117 -0.432299 
0.309842 0.245659 0.999626 8.245859 -0.370519 87.857138 3.759916 -3.819787 -19.336663 -10.988337 -0.295471 49.850273 -0.845255 7.004578 -8.893076 0.000000 -0.000000 0.000000 2.464021 3.902812 -9.741218 2.012384 7.558460 25.874198 -1.299327 -2.546694 -14.460114 0.000000 -0.000000 0.000000 0.979038 2.333027 14.703789 6.542565 -0.612843 2.635641 2.327713 0.246614 1.055149 0.330644 2.348261 -4.577021 -5.887574 -5.397552 9.031617 -25.999703 4.801665 2.731650 -53.220549 -1.510638 12.065657 15.979367 -49.669252 4.512226 3.657024 -4.429454 -13.758638 32.149102 8.302597 2.746007 47.557655 14.930636 12.822842 -17.876093 20.300074 -8.154504 2.229684 3.515140 -6.361707 
